<?xml version="1.0" encoding="UTF-8"?>
<!DOCTYPE svg PUBLIC "-//W3C//DTD SVG 1.1//EN" "http://www.w3.org/Graphics/SVG/1.1/DTD/svg11.dtd">
<svg xmlns="http://www.w3.org/2000/svg" version="1.1" width="202px" height="202px" style="shape-rendering:geometricPrecision; text-rendering:geometricPrecision; image-rendering:optimizeQuality; fill-rule:evenodd; clip-rule:evenodd" xmlns:xlink="http://www.w3.org/1999/xlink">
<g><path style="opacity:1" fill="#f1f1f3" d="M -0.5,-0.5 C 15.5,-0.5 31.5,-0.5 47.5,-0.5C 47.5,-0.166667 47.5,0.166667 47.5,0.5C 42.297,1.00942 37.6303,2.67609 33.5,5.5C 29.7485,5.9399 26.7485,7.60657 24.5,10.5C 22.2512,11.0798 20.5846,12.4131 19.5,14.5C 18.8333,14.5 18.5,14.8333 18.5,15.5C 17.5041,15.4142 16.6708,15.7476 16,16.5C 14.2502,18.7343 12.7502,21.0676 11.5,23.5C 10.8333,23.5 10.5,23.8333 10.5,24.5C 6.88458,28.0592 4.55124,32.3926 3.5,37.5C 2.5418,39.3024 1.87513,41.3024 1.5,43.5C 0.833333,44.8333 0.166667,46.1667 -0.5,47.5C -0.5,31.5 -0.5,15.5 -0.5,-0.5 Z"/></g>
<g><path style="opacity:1" fill="#f0f0f2" d="M 149.5,-0.5 C 166.833,-0.5 184.167,-0.5 201.5,-0.5C 201.5,15.8333 201.5,32.1667 201.5,48.5C 201.167,48.5 200.833,48.5 200.5,48.5C 200.483,44.4661 199.483,40.7994 197.5,37.5C 196.668,33.6907 195.001,30.3573 192.5,27.5C 192.573,25.9731 191.906,24.9731 190.5,24.5C 189.92,22.2512 188.587,20.5846 186.5,19.5C 185.167,17.5 183.5,15.8333 181.5,14.5C 179.733,12.1099 177.4,10.4432 174.5,9.5C 173.71,8.59872 172.71,7.93205 171.5,7.5C 167.508,4.16151 162.842,2.16151 157.5,1.5C 154.505,1.70621 151.838,1.03954 149.5,-0.5 Z"/></g>
<g><path style="opacity:1" fill="#5d5f83" d="M 47.5,0.5 C 43.0601,2.53756 38.3934,4.20422 33.5,5.5C 37.6303,2.67609 42.297,1.00942 47.5,0.5 Z"/></g>
<g><path style="opacity:1" fill="#0c1440" d="M 47.5,-0.5 C 81.5,-0.5 115.5,-0.5 149.5,-0.5C 151.838,1.03954 154.505,1.70621 157.5,1.5C 161.962,3.6649 166.629,5.6649 171.5,7.5C 172.71,7.93205 173.71,8.59872 174.5,9.5C 175.37,11.2737 176.703,12.607 178.5,13.5C 177.036,15.9845 175.369,15.9845 173.5,13.5C 171.278,14.7783 168.944,15.7783 166.5,16.5C 160.853,14.8386 155.186,13.3386 149.5,12C 136.833,11.1969 124.166,10.3636 111.5,9.5C 100.823,10.1686 90.1564,10.8353 79.5,11.5C 79.5,12.8333 79.5,14.1667 79.5,15.5C 72.1667,15.5 64.8333,15.5 57.5,15.5C 57.5,14.1667 57.5,12.8333 57.5,11.5C 49.1432,12.0057 40.8098,12.839 32.5,14C 31.9535,14.9246 31.2868,15.7579 30.5,16.5C 24.6332,12.869 22.1332,14.2023 23,20.5C 21.3335,19.6598 21.1669,20.1598 22.5,22C 21.5838,22.3742 20.7504,22.8742 20,23.5C 20.0773,22.2624 19.9106,21.2624 19.5,20.5C 17.0905,21.7007 15.0905,23.3674 13.5,25.5C 15.8351,28.1966 15.8351,30.6966 13.5,33C 14.2266,34.3988 14.7266,35.8988 15,37.5C 15.49,36.2068 15.6567,34.8734 15.5,33.5C 28.8154,34.3327 42.1487,34.6661 55.5,34.5C 55.5,36.1667 55.5,37.8333 55.5,39.5C 56.5,39.5 57.5,39.5 58.5,39.5C 58.5,36.8333 58.5,34.1667 58.5,31.5C 60.1667,31.5 61.8333,31.5 63.5,31.5C 63.5,32.5 63.5,33.5 63.5,34.5C 66.1667,34.5 68.8333,34.5 71.5,34.5C 71.281,33.325 71.6143,32.325 72.5,31.5C 74.4517,33.7412 76.6184,35.7412 79,37.5C 80.6158,36.4552 82.2825,35.4552 84,34.5C 84.4828,33.552 84.6495,32.552 84.5,31.5C 87.5719,31.1826 90.5719,31.5159 93.5,32.5C 91.5767,33.3078 89.5767,33.8078 87.5,34C 88.056,34.3826 88.3893,34.8826 88.5,35.5C 85.1277,38.2124 82.461,41.5457 80.5,45.5C 79.5713,44.3112 79.238,42.9778 79.5,41.5C 57.7683,42.149 36.2683,41.4823 15,39.5C 13.0468,42.2551 11.8801,45.2551 11.5,48.5C 10.5,48.5 9.5,48.5 8.5,48.5C 9.03591,45.1538 9.70258,41.8204 10.5,38.5C 10.4435,37.263 9.94353,36.263 9,35.5C 6.74289,40.3506 4.24289,45.0172 1.5,49.5C 1.5,47.5 1.5,45.5 1.5,43.5C 1.87513,41.3024 2.5418,39.3024 3.5,37.5C 6.39093,33.5182 8.72426,29.1848 10.5,24.5C 10.5,23.8333 10.8333,23.5 11.5,23.5C 14.8154,21.6937 17.1488,19.027 18.5,15.5C 18.5,14.8333 18.8333,14.5 19.5,14.5C 21.7488,13.9202 23.4154,12.5869 24.5,10.5C 26.7485,7.60657 29.7485,5.9399 33.5,5.5C 38.3934,4.20422 43.0601,2.53756 47.5,0.5C 47.5,0.166667 47.5,-0.166667 47.5,-0.5 Z"/></g>
<g><path style="opacity:1" fill="#636581" d="M 157.5,1.5 C 162.842,2.16151 167.508,4.16151 171.5,7.5C 166.629,5.6649 161.962,3.6649 157.5,1.5 Z"/></g>
<g><path style="opacity:1" fill="#061238" d="M 178.5,13.5 C 179.391,14.1098 180.391,14.4431 181.5,14.5C 183.5,15.8333 185.167,17.5 186.5,19.5C 187.08,21.7488 188.413,23.4154 190.5,24.5C 190.427,26.0269 191.094,27.0269 192.5,27.5C 195.001,30.3573 196.668,33.6907 197.5,37.5C 197.5,38.8333 197.5,40.1667 197.5,41.5C 196.577,40.6971 195.577,40.5304 194.5,41C 195.928,44.4741 195.428,44.9741 193,42.5C 191.913,44.9316 191.413,44.5983 191.5,41.5C 191.5,39.1667 191.5,36.8333 191.5,34.5C 188.833,34.5 186.167,34.5 183.5,34.5C 183.5,33.5 183.5,32.5 183.5,31.5C 180.833,31.5 178.167,31.5 175.5,31.5C 175.5,33.5 175.5,35.5 175.5,37.5C 171.199,36.8484 168.199,34.5151 166.5,30.5C 158.879,30.2384 151.213,30.5718 143.5,31.5C 143.5,32.5 143.5,33.5 143.5,34.5C 140.833,34.5 138.167,34.5 135.5,34.5C 135.5,33.5 135.5,32.5 135.5,31.5C 132.15,31.335 128.817,31.5017 125.5,32C 124.219,34.4033 122.386,36.2367 120,37.5C 119.517,36.552 119.351,35.552 119.5,34.5C 115.993,35.0065 112.826,34.3398 110,32.5C 106.575,33.4691 103.075,33.4691 99.5,32.5C 95.2819,32.5779 94.7819,33.5779 98,35.5C 98.3333,35.1667 98.6667,34.8333 99,34.5C 100.067,35.1905 101.234,35.6905 102.5,36C 100.406,37.3515 98.0728,37.8515 95.5,37.5C 95.3893,36.8826 95.056,36.3826 94.5,36C 92.5273,35.5045 90.5273,35.3379 88.5,35.5C 88.3893,34.8826 88.056,34.3826 87.5,34C 89.5767,33.8078 91.5767,33.3078 93.5,32.5C 90.5719,31.5159 87.5719,31.1826 84.5,31.5C 84.6495,32.552 84.4828,33.552 84,34.5C 82.2825,35.4552 80.6158,36.4552 79,37.5C 76.6184,35.7412 74.4517,33.7412 72.5,31.5C 71.6143,32.325 71.281,33.325 71.5,34.5C 68.8333,34.5 66.1667,34.5 63.5,34.5C 63.5,33.5 63.5,32.5 63.5,31.5C 61.8333,31.5 60.1667,31.5 58.5,31.5C 58.5,34.1667 58.5,36.8333 58.5,39.5C 57.5,39.5 56.5,39.5 55.5,39.5C 55.5,37.8333 55.5,36.1667 55.5,34.5C 42.1487,34.6661 28.8154,34.3327 15.5,33.5C 15.6567,34.8734 15.49,36.2068 15,37.5C 14.7266,35.8988 14.2266,34.3988 13.5,33C 15.8351,30.6966 15.8351,28.1966 13.5,25.5C 15.0905,23.3674 17.0905,21.7007 19.5,20.5C 19.9106,21.2624 20.0773,22.2624 20,23.5C 20.7504,22.8742 21.5838,22.3742 22.5,22C 21.1669,20.1598 21.3335,19.6598 23,20.5C 22.1332,14.2023 24.6332,12.869 30.5,16.5C 31.2868,15.7579 31.9535,14.9246 32.5,14C 40.8098,12.839 49.1432,12.0057 57.5,11.5C 57.5,12.8333 57.5,14.1667 57.5,15.5C 64.8333,15.5 72.1667,15.5 79.5,15.5C 79.5,14.1667 79.5,12.8333 79.5,11.5C 90.1564,10.8353 100.823,10.1686 111.5,9.5C 124.166,10.3636 136.833,11.1969 149.5,12C 155.186,13.3386 160.853,14.8386 166.5,16.5C 168.944,15.7783 171.278,14.7783 173.5,13.5C 175.369,15.9845 177.036,15.9845 178.5,13.5 Z"/></g>
<g><path style="opacity:1" fill="#484b6a" d="M 174.5,9.5 C 177.4,10.4432 179.733,12.1099 181.5,14.5C 180.391,14.4431 179.391,14.1098 178.5,13.5C 176.703,12.607 175.37,11.2737 174.5,9.5 Z"/></g>
<g><path style="opacity:1" fill="#4a4d71" d="M 24.5,10.5 C 23.4154,12.5869 21.7488,13.9202 19.5,14.5C 20.5846,12.4131 22.2512,11.0798 24.5,10.5 Z"/></g>
<g><path style="opacity:1" fill="#3e4066" d="M 18.5,15.5 C 17.1488,19.027 14.8154,21.6937 11.5,23.5C 12.7502,21.0676 14.2502,18.7343 16,16.5C 16.6708,15.7476 17.5041,15.4142 18.5,15.5 Z"/></g>
<g><path style="opacity:1" fill="#575a78" d="M 186.5,19.5 C 188.587,20.5846 189.92,22.2512 190.5,24.5C 188.413,23.4154 187.08,21.7488 186.5,19.5 Z"/></g>
<g><path style="opacity:1" fill="#626681" d="M 190.5,24.5 C 191.906,24.9731 192.573,25.9731 192.5,27.5C 191.094,27.0269 190.427,26.0269 190.5,24.5 Z"/></g>
<g><path style="opacity:1" fill="#060c38" d="M 191.5,41.5 C 182.547,42.0176 173.714,41.3509 165,39.5C 161.866,41.015 160.032,40.015 159.5,36.5C 158.5,36.5 157.5,36.5 156.5,36.5C 156.657,37.8734 156.49,39.2068 156,40.5C 154.927,39.7203 153.76,39.887 152.5,41C 139.154,41.8327 125.821,41.666 112.5,40.5C 111.289,39.2798 111.289,38.1131 112.5,37C 109.5,35 106.5,35 103.5,37C 105.788,37.8221 108.122,38.4888 110.5,39C 108.397,41.554 105.897,42.054 103,40.5C 102.667,41.1667 102.333,41.8333 102,42.5C 99.4514,41.1893 97.2848,39.5226 95.5,37.5C 98.0728,37.8515 100.406,37.3515 102.5,36C 101.234,35.6905 100.067,35.1905 99,34.5C 98.6667,34.8333 98.3333,35.1667 98,35.5C 94.7819,33.5779 95.2819,32.5779 99.5,32.5C 103.075,33.4691 106.575,33.4691 110,32.5C 112.826,34.3398 115.993,35.0065 119.5,34.5C 119.351,35.552 119.517,36.552 120,37.5C 122.386,36.2367 124.219,34.4033 125.5,32C 128.817,31.5017 132.15,31.335 135.5,31.5C 135.5,32.5 135.5,33.5 135.5,34.5C 138.167,34.5 140.833,34.5 143.5,34.5C 143.5,33.5 143.5,32.5 143.5,31.5C 151.213,30.5718 158.879,30.2384 166.5,30.5C 168.199,34.5151 171.199,36.8484 175.5,37.5C 175.5,35.5 175.5,33.5 175.5,31.5C 178.167,31.5 180.833,31.5 183.5,31.5C 183.5,32.5 183.5,33.5 183.5,34.5C 186.167,34.5 188.833,34.5 191.5,34.5C 191.5,36.8333 191.5,39.1667 191.5,41.5 Z"/></g>
<g><path style="opacity:1" fill="#4e5074" d="M 10.5,24.5 C 8.72426,29.1848 6.39093,33.5182 3.5,37.5C 4.55124,32.3926 6.88458,28.0592 10.5,24.5 Z"/></g>
<g><path style="opacity:1" fill="#61627d" d="M 197.5,37.5 C 199.483,40.7994 200.483,44.4661 200.5,48.5C 199.651,46.1124 198.651,43.7791 197.5,41.5C 197.5,40.1667 197.5,38.8333 197.5,37.5 Z"/></g>
<g><path style="opacity:1" fill="#050f33" d="M 88.5,35.5 C 90.5273,35.3379 92.5273,35.5045 94.5,36C 95.056,36.3826 95.3893,36.8826 95.5,37.5C 97.2848,39.5226 99.4514,41.1893 102,42.5C 102.333,41.8333 102.667,41.1667 103,40.5C 105.897,42.054 108.397,41.554 110.5,39C 108.122,38.4888 105.788,37.8221 103.5,37C 106.5,35 109.5,35 112.5,37C 111.289,38.1131 111.289,39.2798 112.5,40.5C 125.821,41.666 139.154,41.8327 152.5,41C 153.76,39.887 154.927,39.7203 156,40.5C 156.49,39.2068 156.657,37.8734 156.5,36.5C 157.5,36.5 158.5,36.5 159.5,36.5C 160.032,40.015 161.866,41.015 165,39.5C 173.714,41.3509 182.547,42.0176 191.5,41.5C 191.413,44.5983 191.913,44.9316 193,42.5C 195.428,44.9741 195.928,44.4741 194.5,41C 195.577,40.5304 196.577,40.6971 197.5,41.5C 199.259,54.0889 199.926,66.7556 199.5,79.5C 198.167,79.5 196.833,79.5 195.5,79.5C 195.5,75.1667 195.5,70.8333 195.5,66.5C 194.167,66.5 192.833,66.5 191.5,66.5C 191.5,67.5 191.5,68.5 191.5,69.5C 186.489,69.6659 181.489,69.4993 176.5,69C 175.638,66.2656 174.805,66.0989 174,68.5C 172.845,67.6619 171.678,66.6619 170.5,65.5C 175.236,58.6809 174.236,52.8476 167.5,48C 158.835,45.4914 153.501,48.6581 151.5,57.5C 152.093,63.7562 155.427,67.4229 161.5,68.5C 161.579,69.9305 161.246,71.2638 160.5,72.5C 161.325,73.3857 162.325,73.719 163.5,73.5C 162.916,78.3699 161.416,79.0365 159,75.5C 158.125,78.2146 156.292,79.5479 153.5,79.5C 153.799,77.396 153.466,75.396 152.5,73.5C 151.24,75.3529 151.24,77.1862 152.5,79C 150.406,80.3515 148.073,80.8515 145.5,80.5C 145.5,79.5 145.5,78.5 145.5,77.5C 148.331,79.1821 149.831,78.5154 150,75.5C 144.576,69.5694 138.742,64.2361 132.5,59.5C 128.521,55.5058 123.855,52.5058 118.5,50.5C 104.213,44.5462 90.2134,45.3796 76.5,53C 67.4443,59.0494 59.2777,66.216 52,74.5C 51.51,75.7932 51.3433,77.1266 51.5,78.5C 52.552,78.6495 53.552,78.4828 54.5,78C 63.0237,67.4817 73.3571,59.1484 85.5,53C 95.9006,49.5828 106.234,49.7494 116.5,53.5C 120.5,55.8333 124.5,58.1667 128.5,60.5C 133.86,65.1937 138.86,70.1937 143.5,75.5C 142.325,75.281 141.325,75.6143 140.5,76.5C 142.015,77.5905 142.848,78.9239 143,80.5C 140.895,81.3114 138.895,82.3114 137,83.5C 133.701,81.8727 133.868,80.3727 137.5,79C 136.833,78.6667 136.167,78.3333 135.5,78C 136.735,75.8206 138.069,74.4873 139.5,74C 137.898,72.178 136.231,70.3447 134.5,68.5C 133.667,69.5 132.833,70.5 132,71.5C 130.471,70.2713 129.304,68.7713 128.5,67C 122.843,66.5006 117.176,66.3339 111.5,66.5C 111.5,67.5 111.5,68.5 111.5,69.5C 102.838,68.9304 94.3383,69.5971 86,71.5C 83.775,69.7217 81.275,69.2217 78.5,70C 75.9841,72.6833 73.3174,75.1833 70.5,77.5C 71.767,79.3707 71.767,81.2041 70.5,83C 72.7489,83.8632 74.5822,83.3632 76,81.5C 79.7874,82.3463 83.2874,81.5129 86.5,79C 95.1667,78.3333 103.833,78.3333 112.5,79C 114.52,80.2166 116.52,80.3833 118.5,79.5C 120.723,82.078 123.056,84.4113 125.5,86.5C 125.167,86.5 124.833,86.5 124.5,86.5C 102.929,75.065 83.2625,77.7316 65.5,94.5C 64.466,91.5757 63.7994,88.2423 63.5,84.5C 60.7531,84.8134 58.0865,84.48 55.5,83.5C 58.2988,82.9959 60.7988,81.9959 63,80.5C 63.6667,79.5 63.6667,78.5 63,77.5C 62.6667,77.8333 62.3333,78.1667 62,78.5C 61.8038,76.7139 60.9705,75.3805 59.5,74.5C 58.3617,79.9307 55.0284,81.9307 49.5,80.5C 49.0339,77.8691 48.3672,75.7024 47.5,74C 49.924,72.3866 52.2573,71.0533 54.5,70C 52.8333,68.8333 51.1667,67.6667 49.5,66.5C 49.1667,67.1667 48.8333,67.8333 48.5,68.5C 37.1667,67.8333 25.8333,67.1667 14.5,66.5C 13.6735,70.4592 13.1735,74.4592 13,78.5C 11.9887,79.3366 10.8221,79.67 9.5,79.5C 9.98816,73.9224 9.15482,68.589 7,63.5C 5.83716,65.2852 5.17049,67.2852 5,69.5C 4.395,78.318 3.395,86.9847 2,95.5C 1.50012,107.829 1.33346,120.162 1.5,132.5C 1.5,136.167 1.5,139.833 1.5,143.5C 1.5,145.167 1.5,146.833 1.5,148.5C 0.184584,115.64 0.184584,82.6397 1.5,49.5C 4.24289,45.0172 6.74289,40.3506 9,35.5C 9.94353,36.263 10.4435,37.263 10.5,38.5C 9.70258,41.8204 9.03591,45.1538 8.5,48.5C 9.5,48.5 10.5,48.5 11.5,48.5C 11.8801,45.2551 13.0468,42.2551 15,39.5C 36.2683,41.4823 57.7683,42.149 79.5,41.5C 79.238,42.9778 79.5713,44.3112 80.5,45.5C 82.461,41.5457 85.1277,38.2124 88.5,35.5 Z"/></g>
<g><path style="opacity:1" fill="#a3ccf2" d="M 170.5,65.5 C 168.003,67.8711 165.003,68.8711 161.5,68.5C 155.427,67.4229 152.093,63.7562 151.5,57.5C 153.501,48.6581 158.835,45.4914 167.5,48C 174.236,52.8476 175.236,58.6809 170.5,65.5 Z"/></g>
<g><path style="opacity:1" fill="#4f81c6" d="M 118.5,50.5 C 123.855,52.5058 128.521,55.5058 132.5,59.5C 131.167,59.8333 129.833,60.1667 128.5,60.5C 124.5,58.1667 120.5,55.8333 116.5,53.5C 115.086,51.4017 115.752,50.4017 118.5,50.5 Z"/></g>
<g><path style="opacity:1" fill="#478ac7" d="M 118.5,50.5 C 115.752,50.4017 115.086,51.4017 116.5,53.5C 106.234,49.7494 95.9006,49.5828 85.5,53C 73.3571,59.1484 63.0237,67.4817 54.5,78C 53.552,78.4828 52.552,78.6495 51.5,78.5C 51.3433,77.1266 51.51,75.7932 52,74.5C 59.2777,66.216 67.4443,59.0494 76.5,53C 90.2134,45.3796 104.213,44.5462 118.5,50.5 Z"/></g>
<g><path style="opacity:1" fill="#040b2b" d="M 65.5,94.5 C 62.1667,97.5 58.8333,100.5 55.5,103.5C 56.6929,100.405 56.0263,97.7384 53.5,95.5C 53.5,96.8333 53.5,98.1667 53.5,99.5C 50.6087,97.0541 47.2754,95.7208 43.5,95.5C 33.3123,95.4752 22.9789,95.6419 12.5,96C 11.8097,101.165 11.1431,106.331 10.5,111.5C 9.83347,106.319 9.16681,100.985 8.5,95.5C 7.40245,91.6395 6.56911,91.6395 6,95.5C 5.66667,95.1667 5.33333,94.8333 5,94.5C 4.12572,107.345 2.95905,120.012 1.5,132.5C 1.33346,120.162 1.50012,107.829 2,95.5C 3.395,86.9847 4.395,78.318 5,69.5C 5.17049,67.2852 5.83716,65.2852 7,63.5C 9.15482,68.589 9.98816,73.9224 9.5,79.5C 10.8221,79.67 11.9887,79.3366 13,78.5C 13.1735,74.4592 13.6735,70.4592 14.5,66.5C 25.8333,67.1667 37.1667,67.8333 48.5,68.5C 48.8333,67.8333 49.1667,67.1667 49.5,66.5C 51.1667,67.6667 52.8333,68.8333 54.5,70C 52.2573,71.0533 49.924,72.3866 47.5,74C 48.3672,75.7024 49.0339,77.8691 49.5,80.5C 55.0284,81.9307 58.3617,79.9307 59.5,74.5C 60.9705,75.3805 61.8038,76.7139 62,78.5C 62.3333,78.1667 62.6667,77.8333 63,77.5C 63.6667,78.5 63.6667,79.5 63,80.5C 60.7988,81.9959 58.2988,82.9959 55.5,83.5C 58.0865,84.48 60.7531,84.8134 63.5,84.5C 63.7994,88.2423 64.466,91.5757 65.5,94.5 Z"/></g>
<g><path style="opacity:1" fill="#040c2b" d="M 170.5,65.5 C 171.678,66.6619 172.845,67.6619 174,68.5C 174.805,66.0989 175.638,66.2656 176.5,69C 181.489,69.4993 186.489,69.6659 191.5,69.5C 191.5,68.5 191.5,67.5 191.5,66.5C 192.833,66.5 194.167,66.5 195.5,66.5C 195.5,70.8333 195.5,75.1667 195.5,79.5C 196.833,79.5 198.167,79.5 199.5,79.5C 199.5,90.1667 199.5,100.833 199.5,111.5C 197.744,110.448 197.077,108.781 197.5,106.5C 197.5,102.833 197.5,99.1667 197.5,95.5C 196.167,95.5 194.833,95.5 193.5,95.5C 193.762,94.0222 193.429,92.6888 192.5,91.5C 191.451,94.0795 190.784,96.7462 190.5,99.5C 185.5,99.5 180.5,99.5 175.5,99.5C 175.5,98.1667 175.5,96.8333 175.5,95.5C 172.289,95.012 169.456,95.6787 167,97.5C 160.066,93.7005 155.066,95.3672 152,102.5C 150.111,100.517 148.778,98.1838 148,95.5C 146.779,96.7741 145.946,98.2741 145.5,100C 146.96,103.281 148.96,106.114 151.5,108.5C 151.715,110.179 151.048,111.179 149.5,111.5C 147.775,106.086 144.441,101.753 139.5,98.5C 135.128,94.1256 130.461,90.1256 125.5,86.5C 123.056,84.4113 120.723,82.078 118.5,79.5C 116.52,80.3833 114.52,80.2166 112.5,79C 103.833,78.3333 95.1667,78.3333 86.5,79C 83.2874,81.5129 79.7874,82.3463 76,81.5C 74.5822,83.3632 72.7489,83.8632 70.5,83C 71.767,81.2041 71.767,79.3707 70.5,77.5C 73.3174,75.1833 75.9841,72.6833 78.5,70C 81.275,69.2217 83.775,69.7217 86,71.5C 94.3383,69.5971 102.838,68.9304 111.5,69.5C 111.5,68.5 111.5,67.5 111.5,66.5C 117.176,66.3339 122.843,66.5006 128.5,67C 129.304,68.7713 130.471,70.2713 132,71.5C 132.833,70.5 133.667,69.5 134.5,68.5C 136.231,70.3447 137.898,72.178 139.5,74C 138.069,74.4873 136.735,75.8206 135.5,78C 136.167,78.3333 136.833,78.6667 137.5,79C 133.868,80.3727 133.701,81.8727 137,83.5C 138.895,82.3114 140.895,81.3114 143,80.5C 142.848,78.9239 142.015,77.5905 140.5,76.5C 141.325,75.6143 142.325,75.281 143.5,75.5C 144.5,75.8333 145.167,76.5 145.5,77.5C 145.5,78.5 145.5,79.5 145.5,80.5C 148.073,80.8515 150.406,80.3515 152.5,79C 151.24,77.1862 151.24,75.3529 152.5,73.5C 153.466,75.396 153.799,77.396 153.5,79.5C 156.292,79.5479 158.125,78.2146 159,75.5C 161.416,79.0365 162.916,78.3699 163.5,73.5C 162.325,73.719 161.325,73.3857 160.5,72.5C 161.246,71.2638 161.579,69.9305 161.5,68.5C 165.003,68.8711 168.003,67.8711 170.5,65.5 Z"/></g>
<g><path style="opacity:1" fill="#6176c3" d="M 132.5,59.5 C 138.742,64.2361 144.576,69.5694 150,75.5C 149.831,78.5154 148.331,79.1821 145.5,77.5C 145.167,76.5 144.5,75.8333 143.5,75.5C 138.86,70.1937 133.86,65.1937 128.5,60.5C 129.833,60.1667 131.167,59.8333 132.5,59.5 Z"/></g>
<g><path style="opacity:1" fill="#5e5e8a" d="M 1.5,43.5 C 1.5,45.5 1.5,47.5 1.5,49.5C 0.184584,82.6397 0.184584,115.64 1.5,148.5C 1.5,150.833 1.5,153.167 1.5,155.5C 0.833333,153.833 0.166667,152.167 -0.5,150.5C -0.5,116.167 -0.5,81.8333 -0.5,47.5C 0.166667,46.1667 0.833333,44.8333 1.5,43.5 Z"/></g>
<g><path style="opacity:1" fill="#323556" d="M 197.5,41.5 C 198.651,43.7791 199.651,46.1124 200.5,48.5C 200.833,48.5 201.167,48.5 201.5,48.5C 201.5,82.1667 201.5,115.833 201.5,149.5C 200.566,150.568 200.232,151.901 200.5,153.5C 199.833,154.167 199.167,154.833 198.5,155.5C 199.272,151.548 199.605,147.548 199.5,143.5C 199.5,132.833 199.5,122.167 199.5,111.5C 199.5,100.833 199.5,90.1667 199.5,79.5C 199.926,66.7556 199.259,54.0889 197.5,41.5 Z"/></g>
<g><path style="opacity:1" fill="#468ac5" d="M 124.5,86.5 C 123.486,87.6737 122.153,88.3404 120.5,88.5C 116.019,86.5624 111.352,85.2291 106.5,84.5C 93.0907,82.3015 81.424,85.9682 71.5,95.5C 65.4043,100.091 59.7377,105.258 54.5,111C 53.2068,111.49 51.8734,111.657 50.5,111.5C 51.044,109.284 52.044,107.284 53.5,105.5C 54.5,105.167 55.1667,104.5 55.5,103.5C 58.8333,100.5 62.1667,97.5 65.5,94.5C 83.2625,77.7316 102.929,75.065 124.5,86.5 Z"/></g>
<g><path style="opacity:1" fill="#547fc5" d="M 124.5,86.5 C 124.833,86.5 125.167,86.5 125.5,86.5C 130.461,90.1256 135.128,94.1256 139.5,98.5C 137.901,98.2322 136.568,98.5655 135.5,99.5C 130.64,95.5771 125.64,91.9104 120.5,88.5C 122.153,88.3404 123.486,87.6737 124.5,86.5 Z"/></g>
<g><path style="opacity:1" fill="#01143d" d="M 106.5,84.5 C 103.482,84.3354 100.482,84.502 97.5,85C 99.7947,85.9836 99.4614,86.8169 96.5,87.5C 95.3044,87.1543 95.3044,86.6543 96.5,86C 95.1667,85.3333 93.8333,85.3333 92.5,86C 87.6553,88.3166 82.6553,90.3166 77.5,92C 76.6195,92.7083 75.9528,93.5416 75.5,94.5C 74.5084,94.3284 73.8417,94.6618 73.5,95.5C 72.8333,95.5 72.1667,95.5 71.5,95.5C 81.424,85.9682 93.0907,82.3015 106.5,84.5 Z"/></g>
<g><path style="opacity:1" fill="#030b2b" d="M 106.5,84.5 C 111.352,85.2291 116.019,86.5624 120.5,88.5C 125.64,91.9104 130.64,95.5771 135.5,99.5C 136.833,101.167 138.167,102.833 139.5,104.5C 138.448,104.649 137.448,104.483 136.5,104C 134.663,100.355 132.663,100.022 130.5,103C 133.711,103.732 135.711,105.566 136.5,108.5C 133.356,107.828 130.356,106.828 127.5,105.5C 128.11,100.683 127.777,98.6833 126.5,99.5C 121.5,99.5 116.5,99.5 111.5,99.5C 112.178,94.8688 110.178,92.8688 105.5,93.5C 102.363,93.051 99.8633,94.051 98,96.5C 97.6667,96.1667 97.3333,95.8333 97,95.5C 95.8118,96.5634 95.3118,97.8967 95.5,99.5C 90.4889,99.6659 85.4889,99.4993 80.5,99C 76.4941,96.9343 76.8274,95.4343 81.5,94.5C 81.2907,93.914 80.9574,93.414 80.5,93C 78.8107,93.1343 77.144,93.6343 75.5,94.5C 75.9528,93.5416 76.6195,92.7083 77.5,92C 82.6553,90.3166 87.6553,88.3166 92.5,86C 93.8333,85.3333 95.1667,85.3333 96.5,86C 95.3044,86.6543 95.3044,87.1543 96.5,87.5C 99.4614,86.8169 99.7947,85.9836 97.5,85C 100.482,84.502 103.482,84.3354 106.5,84.5 Z"/></g>
<g><path style="opacity:1" fill="#010b25" d="M 197.5,106.5 C 195.74,109.701 194.906,113.367 195,117.5C 194.29,118.973 193.124,119.64 191.5,119.5C 191.5,116.833 191.5,114.167 191.5,111.5C 186.167,111.5 180.833,111.5 175.5,111.5C 175.5,113.167 175.5,114.833 175.5,116.5C 167.337,116.813 159.337,115.813 151.5,113.5C 152.735,111.684 152.735,110.017 151.5,108.5C 148.96,106.114 146.96,103.281 145.5,100C 145.946,98.2741 146.779,96.7741 148,95.5C 148.778,98.1838 150.111,100.517 152,102.5C 155.066,95.3672 160.066,93.7005 167,97.5C 169.456,95.6787 172.289,95.012 175.5,95.5C 175.5,96.8333 175.5,98.1667 175.5,99.5C 180.5,99.5 185.5,99.5 190.5,99.5C 190.784,96.7462 191.451,94.0795 192.5,91.5C 193.429,92.6888 193.762,94.0222 193.5,95.5C 194.833,95.5 196.167,95.5 197.5,95.5C 197.5,99.1667 197.5,102.833 197.5,106.5 Z"/></g>
<g><path style="opacity:1" fill="#020b24" d="M 139.5,104.5 C 139.5,106.167 139.5,107.833 139.5,109.5C 138.448,109.351 137.448,109.517 136.5,110C 139.38,112.771 141.713,115.937 143.5,119.5C 140.201,118.624 136.868,118.457 133.5,119C 134.167,119.333 134.833,119.667 135.5,120C 134.167,120.667 134.167,121.333 135.5,122C 131.82,123.142 128.653,121.975 126,118.5C 124.56,117.852 123.06,117.519 121.5,117.5C 121.62,114.795 120.62,114.128 118.5,115.5C 106.31,109.931 93.6433,108.931 80.5,112.5C 81.9798,113.113 83.3131,113.446 84.5,113.5C 82.6366,114.689 80.9699,116.022 79.5,117.5C 76.9275,116.781 74.4275,115.781 72,114.5C 70.907,116.349 69.5737,118.016 68,119.5C 65.8984,115.702 67.0651,113.202 71.5,112C 68.9606,109.958 66.9606,107.458 65.5,104.5C 67.1949,103.708 68.8615,104.042 70.5,105.5C 71.1668,108.833 73.1668,110.167 76.5,109.5C 76.5,108.167 76.5,106.833 76.5,105.5C 74.0901,105.079 72.2568,103.746 71,101.5C 70.6667,102.167 70.3333,102.833 70,103.5C 68.0698,101.081 68.4031,99.4144 71,98.5C 73.2068,100.673 75.5401,102.673 78,104.5C 79.9457,104.237 80.6123,103.237 80,101.5C 78.3333,100.5 77,99.1667 76,97.5C 75,97.8333 74,98.1667 73,98.5C 72.5304,97.4232 72.6971,96.4232 73.5,95.5C 73.8417,94.6618 74.5084,94.3284 75.5,94.5C 77.144,93.6343 78.8107,93.1343 80.5,93C 80.9574,93.414 81.2907,93.914 81.5,94.5C 76.8274,95.4343 76.4941,96.9343 80.5,99C 85.4889,99.4993 90.4889,99.6659 95.5,99.5C 95.3118,97.8967 95.8118,96.5634 97,95.5C 97.3333,95.8333 97.6667,96.1667 98,96.5C 99.8633,94.051 102.363,93.051 105.5,93.5C 110.178,92.8688 112.178,94.8688 111.5,99.5C 116.5,99.5 121.5,99.5 126.5,99.5C 127.777,98.6833 128.11,100.683 127.5,105.5C 130.356,106.828 133.356,107.828 136.5,108.5C 135.711,105.566 133.711,103.732 130.5,103C 132.663,100.022 134.663,100.355 136.5,104C 137.448,104.483 138.448,104.649 139.5,104.5 Z"/></g>
<g><path style="opacity:1" fill="#6275c3" d="M 139.5,98.5 C 144.441,101.753 147.775,106.086 149.5,111.5C 148.448,111.649 147.448,111.483 146.5,111C 144.297,108.628 141.963,106.461 139.5,104.5C 138.167,102.833 136.833,101.167 135.5,99.5C 136.568,98.5655 137.901,98.2322 139.5,98.5 Z"/></g>
<g><path style="opacity:1" fill="#010726" d="M 10.5,111.5 C 11.8734,111.343 13.2068,111.51 14.5,112C 16.2847,114.344 17.618,116.844 18.5,119.5C 20.3464,119.778 21.6798,119.111 22.5,117.5C 25.4281,116.516 28.4281,116.183 31.5,116.5C 31.5,117.5 31.5,118.5 31.5,119.5C 32.5,119.5 33.5,119.5 34.5,119.5C 34.5,118.5 34.5,117.5 34.5,116.5C 39.0128,115.79 43.5128,116.123 48,117.5C 49.1519,114.548 49.6519,111.548 49.5,108.5C 50.1001,106.532 51.4334,105.532 53.5,105.5C 52.044,107.284 51.044,109.284 50.5,111.5C 51.8734,111.657 53.2068,111.49 54.5,111C 59.7377,105.258 65.4043,100.091 71.5,95.5C 72.1667,95.5 72.8333,95.5 73.5,95.5C 72.6971,96.4232 72.5304,97.4232 73,98.5C 74,98.1667 75,97.8333 76,97.5C 77,99.1667 78.3333,100.5 80,101.5C 80.6123,103.237 79.9457,104.237 78,104.5C 75.5401,102.673 73.2068,100.673 71,98.5C 68.4031,99.4144 68.0698,101.081 70,103.5C 70.3333,102.833 70.6667,102.167 71,101.5C 72.2568,103.746 74.0901,105.079 76.5,105.5C 76.5,106.833 76.5,108.167 76.5,109.5C 73.1668,110.167 71.1668,108.833 70.5,105.5C 68.8615,104.042 67.1949,103.708 65.5,104.5C 66.9606,107.458 68.9606,109.958 71.5,112C 67.0651,113.202 65.8984,115.702 68,119.5C 69.5737,118.016 70.907,116.349 72,114.5C 74.4275,115.781 76.9275,116.781 79.5,117.5C 71.6198,122.371 64.2864,128.037 57.5,134.5C 55.9021,131.564 53.9021,128.897 51.5,126.5C 50.5,126.833 49.8333,127.5 49.5,128.5C 51.0413,130.204 52.3746,132.037 53.5,134C 53.3699,135.059 52.8699,135.892 52,136.5C 50.5067,134.338 48.84,132.338 47,130.5C 47.0464,128.687 46.8797,127.021 46.5,125.5C 44.5,128.167 42.5,128.167 40.5,125.5C 37.8518,127.019 35.0185,128.019 32,128.5C 26.9283,127.529 21.7616,127.195 16.5,127.5C 15.4924,144.81 14.4924,144.81 13.5,127.5C 12.1667,127.5 10.8333,127.5 9.5,127.5C 8.65836,147.469 7.49169,147.469 6,127.5C 5.33333,128.167 4.66667,128.833 4,129.5C 3.09788,134.294 2.26455,138.961 1.5,143.5C 1.5,139.833 1.5,136.167 1.5,132.5C 2.95905,120.012 4.12572,107.345 5,94.5C 5.33333,94.8333 5.66667,95.1667 6,95.5C 6.56911,91.6395 7.40245,91.6395 8.5,95.5C 9.16681,100.985 9.83347,106.319 10.5,111.5 Z"/></g>
<g><path style="opacity:1" fill="#010b25" d="M 55.5,103.5 C 55.1667,104.5 54.5,105.167 53.5,105.5C 51.4334,105.532 50.1001,106.532 49.5,108.5C 49.6519,111.548 49.1519,114.548 48,117.5C 43.5128,116.123 39.0128,115.79 34.5,116.5C 34.5,117.5 34.5,118.5 34.5,119.5C 33.5,119.5 32.5,119.5 31.5,119.5C 31.5,118.5 31.5,117.5 31.5,116.5C 28.4281,116.183 25.4281,116.516 22.5,117.5C 21.6798,119.111 20.3464,119.778 18.5,119.5C 17.618,116.844 16.2847,114.344 14.5,112C 13.2068,111.51 11.8734,111.343 10.5,111.5C 11.1431,106.331 11.8097,101.165 12.5,96C 22.9789,95.6419 33.3123,95.4752 43.5,95.5C 47.2754,95.7208 50.6087,97.0541 53.5,99.5C 53.5,98.1667 53.5,96.8333 53.5,95.5C 56.0263,97.7384 56.6929,100.405 55.5,103.5 Z"/></g>
<g><path style="opacity:1" fill="#36699d" d="M 136.5,129.5 C 134.201,128.222 131.868,126.889 129.5,125.5C 128.702,125.957 128.369,126.624 128.5,127.5C 113.706,115.211 97.7059,113.378 80.5,122C 74.07,125.603 68.4033,130.103 63.5,135.5C 59.8043,138.697 56.3043,142.031 53,145.5C 51.7202,145.387 50.8869,144.72 50.5,143.5C 52.4752,140.195 54.8085,137.195 57.5,134.5C 64.2864,128.037 71.6198,122.371 79.5,117.5C 101.145,108.995 120.145,112.995 136.5,129.5 Z"/></g>
<g><path style="opacity:1" fill="#010826" d="M 139.5,104.5 C 141.963,106.461 144.297,108.628 146.5,111C 147.448,111.483 148.448,111.649 149.5,111.5C 151.048,111.179 151.715,110.179 151.5,108.5C 152.735,110.017 152.735,111.684 151.5,113.5C 159.337,115.813 167.337,116.813 175.5,116.5C 175.5,114.833 175.5,113.167 175.5,111.5C 180.833,111.5 186.167,111.5 191.5,111.5C 191.5,114.167 191.5,116.833 191.5,119.5C 193.124,119.64 194.29,118.973 195,117.5C 194.906,113.367 195.74,109.701 197.5,106.5C 197.077,108.781 197.744,110.448 199.5,111.5C 199.5,122.167 199.5,132.833 199.5,143.5C 198.178,143.67 197.011,143.337 196,142.5C 195.306,137.311 193.806,132.478 191.5,128C 190.167,127.333 188.833,127.333 187.5,128C 186.5,129.667 185.167,131 183.5,132C 178.172,132.169 172.838,132.002 167.5,131.5C 167.5,130.167 167.5,128.833 167.5,127.5C 165.076,127.192 162.743,127.526 160.5,128.5C 159.345,129.95 157.845,130.95 156,131.5C 155.28,129.888 155.446,128.388 156.5,127C 154.231,126.242 152.064,126.409 150,127.5C 150.736,130.343 151.903,133.176 153.5,136C 151.55,138.805 151.217,141.805 152.5,145C 150.227,147.896 147.56,148.229 144.5,146C 143.624,144.414 142.624,142.914 141.5,141.5C 140.685,143.276 139.518,143.943 138,143.5C 138.006,141.702 138.339,140.035 139,138.5C 136.129,135.999 133.296,133.499 130.5,131C 121.559,131.413 112.559,131.58 103.5,131.5C 103.5,132.833 103.5,134.167 103.5,135.5C 100.167,135.5 96.8333,135.5 93.5,135.5C 93.6641,132.813 93.4974,130.146 93,127.5C 92,127.833 91,128.167 90,128.5C 89.5034,130.81 89.3367,133.143 89.5,135.5C 88.1667,135.5 86.8333,135.5 85.5,135.5C 85.5,134.167 85.5,132.833 85.5,131.5C 82.9208,131.083 80.7542,131.75 79,133.5C 78.6667,133.167 78.3333,132.833 78,132.5C 76.3509,134.65 74.5176,136.65 72.5,138.5C 69.3805,137.642 66.3805,136.642 63.5,135.5C 68.4033,130.103 74.07,125.603 80.5,122C 97.7059,113.378 113.706,115.211 128.5,127.5C 135.451,132.949 141.951,138.949 148,145.5C 149.946,145.237 150.612,144.237 150,142.5C 146.462,137.999 142.629,133.833 138.5,130C 137.906,129.536 137.239,129.369 136.5,129.5C 120.145,112.995 101.145,108.995 79.5,117.5C 80.9699,116.022 82.6366,114.689 84.5,113.5C 83.3131,113.446 81.9798,113.113 80.5,112.5C 93.6433,108.931 106.31,109.931 118.5,115.5C 120.62,114.128 121.62,114.795 121.5,117.5C 123.06,117.519 124.56,117.852 126,118.5C 128.653,121.975 131.82,123.142 135.5,122C 134.167,121.333 134.167,120.667 135.5,120C 134.833,119.667 134.167,119.333 133.5,119C 136.868,118.457 140.201,118.624 143.5,119.5C 141.713,115.937 139.38,112.771 136.5,110C 137.448,109.517 138.448,109.351 139.5,109.5C 139.5,107.833 139.5,106.167 139.5,104.5 Z"/></g>
<g><path style="opacity:1" fill="#00061f" d="M 57.5,134.5 C 54.8085,137.195 52.4752,140.195 50.5,143.5C 50.8869,144.72 51.7202,145.387 53,145.5C 56.3043,142.031 59.8043,138.697 63.5,135.5C 66.3805,136.642 69.3805,137.642 72.5,138.5C 74.5176,136.65 76.3509,134.65 78,132.5C 78.3333,132.833 78.6667,133.167 79,133.5C 80.7542,131.75 82.9208,131.083 85.5,131.5C 85.5,132.833 85.5,134.167 85.5,135.5C 86.8333,135.5 88.1667,135.5 89.5,135.5C 89.3367,133.143 89.5034,130.81 90,128.5C 91,128.167 92,127.833 93,127.5C 93.4974,130.146 93.6641,132.813 93.5,135.5C 96.8333,135.5 100.167,135.5 103.5,135.5C 103.5,134.167 103.5,132.833 103.5,131.5C 112.559,131.58 121.559,131.413 130.5,131C 133.296,133.499 136.129,135.999 139,138.5C 138.339,140.035 138.006,141.702 138,143.5C 139.518,143.943 140.685,143.276 141.5,141.5C 142.624,142.914 143.624,144.414 144.5,146C 147.56,148.229 150.227,147.896 152.5,145C 151.217,141.805 151.55,138.805 153.5,136C 151.903,133.176 150.736,130.343 150,127.5C 152.064,126.409 154.231,126.242 156.5,127C 155.446,128.388 155.28,129.888 156,131.5C 157.845,130.95 159.345,129.95 160.5,128.5C 162.743,127.526 165.076,127.192 167.5,127.5C 167.5,128.833 167.5,130.167 167.5,131.5C 172.838,132.002 178.172,132.169 183.5,132C 185.167,131 186.5,129.667 187.5,128C 188.833,127.333 190.167,127.333 191.5,128C 193.806,132.478 195.306,137.311 196,142.5C 197.011,143.337 198.178,143.67 199.5,143.5C 199.605,147.548 199.272,151.548 198.5,155.5C 198.5,157.167 198.5,158.833 198.5,160.5C 197.566,161.568 197.232,162.901 197.5,164.5C 195.461,165.911 194.461,167.911 194.5,170.5C 193.662,170.842 193.328,171.508 193.5,172.5C 191.952,172.821 191.285,173.821 191.5,175.5C 191.167,175.5 190.833,175.5 190.5,175.5C 190.433,173.599 190.767,171.766 191.5,170C 191.108,168.989 190.441,168.489 189.5,168.5C 190.69,163.757 192.357,159.257 194.5,155C 193.953,154.075 193.287,153.242 192.5,152.5C 187.127,154.926 181.46,156.259 175.5,156.5C 175.5,157.5 175.5,158.5 175.5,159.5C 172.833,159.5 170.167,159.5 167.5,159.5C 167.5,158.5 167.5,157.5 167.5,156.5C 163.132,156.63 158.798,156.297 154.5,155.5C 153.006,155.291 151.839,154.624 151,153.5C 147.678,155.016 144.845,157.016 142.5,159.5C 141.833,159.333 141.167,159.167 140.5,159C 142.833,157.757 143.5,156.091 142.5,154C 136.993,153.994 131.326,153.828 125.5,153.5C 125.5,155.5 125.5,157.5 125.5,159.5C 124.167,159.5 122.833,159.5 121.5,159.5C 121.5,157.5 121.5,155.5 121.5,153.5C 115.5,153.5 109.5,153.5 103.5,153.5C 103.5,154.5 103.5,155.5 103.5,156.5C 98.1667,156.5 92.8333,156.5 87.5,156.5C 87.5,155.5 87.5,154.5 87.5,153.5C 79.8261,153.334 72.1594,153.5 64.5,154C 63.1321,156.185 61.1321,157.351 58.5,157.5C 54.9465,156.279 51.4465,156.279 48,157.5C 45.6712,152.739 43.0046,152.405 40,156.5C 39.5172,155.552 39.3505,154.552 39.5,153.5C 31.7258,155.805 23.7258,156.805 15.5,156.5C 14.3607,159.162 14.1941,161.829 15,164.5C 13.702,163.44 12.5353,162.274 11.5,161C 12.1667,159.667 12.8333,158.333 13.5,157C 11.8359,155.233 10.6692,155.733 10,158.5C 9.51722,157.552 9.35055,156.552 9.5,155.5C 8.16667,155.5 6.83333,155.5 5.5,155.5C 6.0636,162.115 8.39694,167.948 12.5,173C 11.1537,174.642 11.4871,175.309 13.5,175C 13.9302,174.08 14.2635,173.247 14.5,172.5C 15.8385,176.267 16.8385,179.934 17.5,183.5C 16.8333,183.5 16.1667,183.5 15.5,183.5C 13.5799,181.366 11.9132,179.032 10.5,176.5C 10.573,174.973 9.90632,173.973 8.5,173.5C 7.91553,170.997 7.24887,168.497 6.5,166C 6.16389,164.97 5.49722,164.47 4.5,164.5C 3.94586,161.254 2.94586,158.254 1.5,155.5C 1.5,153.167 1.5,150.833 1.5,148.5C 1.5,146.833 1.5,145.167 1.5,143.5C 2.26455,138.961 3.09788,134.294 4,129.5C 4.66667,128.833 5.33333,128.167 6,127.5C 7.49169,147.469 8.65836,147.469 9.5,127.5C 10.8333,127.5 12.1667,127.5 13.5,127.5C 14.4924,144.81 15.4924,144.81 16.5,127.5C 21.7616,127.195 26.9283,127.529 32,128.5C 35.0185,128.019 37.8518,127.019 40.5,125.5C 42.5,128.167 44.5,128.167 46.5,125.5C 46.8797,127.021 47.0464,128.687 47,130.5C 48.84,132.338 50.5067,134.338 52,136.5C 52.8699,135.892 53.3699,135.059 53.5,134C 52.3746,132.037 51.0413,130.204 49.5,128.5C 49.8333,127.5 50.5,126.833 51.5,126.5C 53.9021,128.897 55.9021,131.564 57.5,134.5 Z"/></g>
<g><path style="opacity:1" fill="#4b5a99" d="M 136.5,129.5 C 137.239,129.369 137.906,129.536 138.5,130C 142.629,133.833 146.462,137.999 150,142.5C 150.612,144.237 149.946,145.237 148,145.5C 141.951,138.949 135.451,132.949 128.5,127.5C 128.369,126.624 128.702,125.957 129.5,125.5C 131.868,126.889 134.201,128.222 136.5,129.5 Z"/></g>
<g><path style="opacity:1" fill="#000619" d="M 190.5,175.5 C 190.5,175.833 190.5,176.167 190.5,176.5C 189.508,176.328 188.842,176.662 188.5,177.5C 187.178,177.33 186.011,177.663 185,178.5C 183.274,180.591 182.107,182.924 181.5,185.5C 179.027,185.088 177.694,186.088 177.5,188.5C 175.861,189.473 174.527,190.806 173.5,192.5C 168.521,193.984 163.521,195.484 158.5,197C 157.429,197.852 156.429,198.685 155.5,199.5C 153.052,200.473 150.385,200.806 147.5,200.5C 114.816,200.79 82.1489,200.456 49.5,199.5C 47.882,198.549 46.5487,197.216 45.5,195.5C 43.8767,196.476 42.5433,195.976 41.5,194C 41.8333,193.667 42.1667,193.333 42.5,193C 38.8794,193.405 35.2128,193.405 31.5,193C 29.8839,192.385 28.5505,191.385 27.5,190C 26.2068,189.51 24.8734,189.343 23.5,189.5C 21.2512,188.92 19.5846,187.587 18.5,185.5C 18.1667,184.833 17.8333,184.167 17.5,183.5C 16.8385,179.934 15.8385,176.267 14.5,172.5C 14.2635,173.247 13.9302,174.08 13.5,175C 11.4871,175.309 11.1537,174.642 12.5,173C 8.39694,167.948 6.0636,162.115 5.5,155.5C 6.83333,155.5 8.16667,155.5 9.5,155.5C 9.35055,156.552 9.51722,157.552 10,158.5C 10.6692,155.733 11.8359,155.233 13.5,157C 12.8333,158.333 12.1667,159.667 11.5,161C 12.5353,162.274 13.702,163.44 15,164.5C 14.1941,161.829 14.3607,159.162 15.5,156.5C 23.7258,156.805 31.7258,155.805 39.5,153.5C 39.3505,154.552 39.5172,155.552 40,156.5C 43.0046,152.405 45.6712,152.739 48,157.5C 51.4465,156.279 54.9465,156.279 58.5,157.5C 61.1321,157.351 63.1321,156.185 64.5,154C 72.1594,153.5 79.8261,153.334 87.5,153.5C 87.5,154.5 87.5,155.5 87.5,156.5C 92.8333,156.5 98.1667,156.5 103.5,156.5C 103.5,155.5 103.5,154.5 103.5,153.5C 109.5,153.5 115.5,153.5 121.5,153.5C 121.5,155.5 121.5,157.5 121.5,159.5C 122.833,159.5 124.167,159.5 125.5,159.5C 125.5,157.5 125.5,155.5 125.5,153.5C 131.326,153.828 136.993,153.994 142.5,154C 143.5,156.091 142.833,157.757 140.5,159C 141.167,159.167 141.833,159.333 142.5,159.5C 144.845,157.016 147.678,155.016 151,153.5C 151.839,154.624 153.006,155.291 154.5,155.5C 158.798,156.297 163.132,156.63 167.5,156.5C 167.5,157.5 167.5,158.5 167.5,159.5C 170.167,159.5 172.833,159.5 175.5,159.5C 175.5,158.5 175.5,157.5 175.5,156.5C 181.46,156.259 187.127,154.926 192.5,152.5C 193.287,153.242 193.953,154.075 194.5,155C 192.357,159.257 190.69,163.757 189.5,168.5C 190.441,168.489 191.108,168.989 191.5,170C 190.767,171.766 190.433,173.599 190.5,175.5 Z"/></g>
<g><path style="opacity:1" fill="#65677b" d="M 200.5,153.5 C 200.279,156.067 199.612,158.401 198.5,160.5C 198.5,158.833 198.5,157.167 198.5,155.5C 199.167,154.833 199.833,154.167 200.5,153.5 Z"/></g>
<g><path style="opacity:1" fill="#595876" d="M 1.5,155.5 C 2.94586,158.254 3.94586,161.254 4.5,164.5C 2.44604,161.992 1.44604,158.992 1.5,155.5 Z"/></g>
<g><path style="opacity:1" fill="#3b395a" d="M 4.5,164.5 C 5.49722,164.47 6.16389,164.97 6.5,166C 7.24887,168.497 7.91553,170.997 8.5,173.5C 6.39256,170.943 5.05923,167.943 4.5,164.5 Z"/></g>
<g><path style="opacity:1" fill="#7b7d8d" d="M 197.5,164.5 C 197.008,166.819 196.008,168.819 194.5,170.5C 194.461,167.911 195.461,165.911 197.5,164.5 Z"/></g>
<g><path style="opacity:1" fill="#efeff1" d="M 201.5,149.5 C 201.5,166.833 201.5,184.167 201.5,201.5C 183.5,201.5 165.5,201.5 147.5,201.5C 147.5,201.167 147.5,200.833 147.5,200.5C 150.385,200.806 153.052,200.473 155.5,199.5C 162.019,198.33 168.019,195.997 173.5,192.5C 176.37,191.567 178.704,189.9 180.5,187.5C 183.053,185.403 185.386,183.07 187.5,180.5C 188.974,179.564 189.974,178.23 190.5,176.5C 190.5,176.167 190.5,175.833 190.5,175.5C 190.833,175.5 191.167,175.5 191.5,175.5C 192.401,174.71 193.068,173.71 193.5,172.5C 193.328,171.508 193.662,170.842 194.5,170.5C 196.008,168.819 197.008,166.819 197.5,164.5C 197.232,162.901 197.566,161.568 198.5,160.5C 199.612,158.401 200.279,156.067 200.5,153.5C 200.232,151.901 200.566,150.568 201.5,149.5 Z"/></g>
<g><path style="opacity:1" fill="#f1f1f2" d="M -0.5,150.5 C 0.166667,152.167 0.833333,153.833 1.5,155.5C 1.44604,158.992 2.44604,161.992 4.5,164.5C 5.05923,167.943 6.39256,170.943 8.5,173.5C 8.42702,175.027 9.09368,176.027 10.5,176.5C 11.9132,179.032 13.5799,181.366 15.5,183.5C 15.9731,184.906 16.9731,185.573 18.5,185.5C 19.5846,187.587 21.2512,188.92 23.5,189.5C 27.4087,193.39 32.0754,196.057 37.5,197.5C 41.3237,199.441 45.3237,200.775 49.5,201.5C 32.8333,201.5 16.1667,201.5 -0.5,201.5C -0.5,184.5 -0.5,167.5 -0.5,150.5 Z"/></g>
<g><path style="opacity:1" fill="#656576" d="M 193.5,172.5 C 193.068,173.71 192.401,174.71 191.5,175.5C 191.285,173.821 191.952,172.821 193.5,172.5 Z"/></g>
<g><path style="opacity:1" fill="#6e7087" d="M 8.5,173.5 C 9.90632,173.973 10.573,174.973 10.5,176.5C 9.09368,176.027 8.42702,175.027 8.5,173.5 Z"/></g>
<g><path style="opacity:1" fill="#606173" d="M 190.5,176.5 C 189.974,178.23 188.974,179.564 187.5,180.5C 187.557,179.391 187.89,178.391 188.5,177.5C 188.842,176.662 189.508,176.328 190.5,176.5 Z"/></g>
<g><path style="opacity:1" fill="#1c1d34" d="M 188.5,177.5 C 187.89,178.391 187.557,179.391 187.5,180.5C 185.386,183.07 183.053,185.403 180.5,187.5C 179.391,187.557 178.391,187.89 177.5,188.5C 177.694,186.088 179.027,185.088 181.5,185.5C 182.107,182.924 183.274,180.591 185,178.5C 186.011,177.663 187.178,177.33 188.5,177.5 Z"/></g>
<g><path style="opacity:1" fill="#76788f" d="M 15.5,183.5 C 16.1667,183.5 16.8333,183.5 17.5,183.5C 17.8333,184.167 18.1667,184.833 18.5,185.5C 16.9731,185.573 15.9731,184.906 15.5,183.5 Z"/></g>
<g><path style="opacity:1" fill="#68697d" d="M 180.5,187.5 C 178.704,189.9 176.37,191.567 173.5,192.5C 174.527,190.806 175.861,189.473 177.5,188.5C 178.391,187.89 179.391,187.557 180.5,187.5 Z"/></g>
<g><path style="opacity:1" fill="#15182e" d="M 23.5,189.5 C 24.8734,189.343 26.2068,189.51 27.5,190C 28.5505,191.385 29.8839,192.385 31.5,193C 35.2128,193.405 38.8794,193.405 42.5,193C 42.1667,193.333 41.8333,193.667 41.5,194C 42.5433,195.976 43.8767,196.476 45.5,195.5C 46.5487,197.216 47.882,198.549 49.5,199.5C 45.4616,199.042 41.4616,198.376 37.5,197.5C 32.0754,196.057 27.4087,193.39 23.5,189.5 Z"/></g>
<g><path style="opacity:1" fill="#343448" d="M 173.5,192.5 C 168.019,195.997 162.019,198.33 155.5,199.5C 156.429,198.685 157.429,197.852 158.5,197C 163.521,195.484 168.521,193.984 173.5,192.5 Z"/></g>
<g><path style="opacity:1" fill="#616181" d="M 37.5,197.5 C 41.4616,198.376 45.4616,199.042 49.5,199.5C 82.1489,200.456 114.816,200.79 147.5,200.5C 147.5,200.833 147.5,201.167 147.5,201.5C 114.833,201.5 82.1667,201.5 49.5,201.5C 45.3237,200.775 41.3237,199.441 37.5,197.5 Z"/></g>
</svg>
